<svg width="17" height="20" viewBox="0 0 17 20" fill="none" xmlns="http://www.w3.org/2000/svg">
<path fill-rule="evenodd" clip-rule="evenodd" d="M12.6014 0C12.6925 1.14445 12.3165 2.27799 11.5532 3.1599C10.8128 4.04638 9.69085 4.55699 8.50921 4.54528C8.43407 3.43378 8.82101 2.3391 9.58483 1.50237C10.3583 0.654298 11.4354 0.11788 12.6014 0ZM16.4601 6.58033C15.0732 7.41143 14.2198 8.87711 14.1988 10.4639C14.2008 12.2591 15.3037 13.8792 17 14.5785C16.6738 15.6115 16.182 16.5878 15.543 17.4711C14.6848 18.7224 13.785 19.945 12.3568 19.9676C11.6775 19.9829 11.219 19.7925 10.7413 19.5941C10.2429 19.3871 9.72362 19.1715 8.911 19.1715C8.04918 19.1715 7.50663 19.3941 6.98336 19.6087C6.53116 19.7942 6.09337 19.9738 5.47638 19.9988C4.11628 20.0479 3.07679 18.6632 2.18738 17.4235C0.409697 14.892 -0.974507 10.2892 0.881227 7.15732C1.75267 5.63089 3.38206 4.66229 5.17324 4.60588C5.94464 4.5904 6.68486 4.88022 7.33383 5.13431C7.83013 5.32862 8.27308 5.50205 8.63579 5.50205C8.95464 5.50205 9.38522 5.33547 9.88703 5.14134C10.6775 4.83554 11.6447 4.46136 12.6303 4.5622C14.1619 4.60891 15.5812 5.35682 16.4601 6.58033Z" fill="black"/>
</svg>
